<svg width="122" height="129" viewBox="0 0 122 129" fill="none" xmlns="http://www.w3.org/2000/svg">
<path d="M37.5843 127.037C37.5843 127.238 37.5248 127.434 37.4134 127.601C37.302 127.767 37.1437 127.897 36.9584 127.974C36.7732 128.051 36.5693 128.071 36.3727 128.032C36.176 127.993 35.9954 127.896 35.8536 127.754C35.7118 127.612 35.6152 127.432 35.5761 127.235C35.537 127.038 35.5571 126.835 35.6338 126.649C35.7105 126.464 35.8405 126.306 36.0072 126.194C36.1739 126.083 36.3699 126.023 36.5705 126.023C36.8393 126.023 37.0972 126.13 37.2874 126.32C37.4775 126.511 37.5843 126.768 37.5843 127.037Z" fill="white"/>
<path d="M61.4633 105.874C61.7627 105.878 62.0482 106.001 62.2582 106.214C62.4682 106.427 62.5858 106.715 62.5858 107.014C62.5858 107.241 62.5184 107.462 62.3923 107.65C62.2661 107.838 62.0869 107.984 61.8774 108.07C61.668 108.155 61.4377 108.177 61.216 108.131C60.9943 108.086 60.7911 107.975 60.6323 107.814C60.4736 107.653 60.3664 107.448 60.3244 107.225C60.2825 107.003 60.3077 106.773 60.3968 106.565C60.4859 106.357 60.6349 106.18 60.8248 106.057C61.0148 105.934 61.237 105.87 61.4633 105.874Z" fill="white"/>
<path d="M77.7389 76.7258C77.8379 76.7258 77.9359 76.7456 78.0272 76.784C78.1185 76.8224 78.2011 76.8787 78.2702 76.9496C78.3394 77.0204 78.3937 77.1044 78.4299 77.1966C78.4661 77.2887 78.4836 77.3872 78.4811 77.4862C78.4836 77.5852 78.4661 77.6837 78.4299 77.7758C78.3937 77.868 78.3394 77.952 78.2702 78.0228C78.2011 78.0937 78.1185 78.15 78.0272 78.1884C77.9359 78.2268 77.8379 78.2466 77.7389 78.2466C77.5372 78.2466 77.3438 78.1665 77.2012 78.0239C77.0586 77.8813 76.9785 77.6879 76.9785 77.4862C76.9785 77.2845 77.0586 77.0911 77.2012 76.9485C77.3438 76.8059 77.5372 76.7258 77.7389 76.7258Z" fill="white"/>
<path d="M89.4163 98.3605C89.5796 98.3605 89.7361 98.4253 89.8516 98.5408C89.967 98.6562 90.0319 98.8128 90.0319 98.976C90.0319 99.0568 90.0159 99.1369 89.985 99.2116C89.9541 99.2862 89.9087 99.3541 89.8516 99.4113C89.7944 99.4684 89.7266 99.5138 89.6519 99.5447C89.5772 99.5756 89.4972 99.5915 89.4163 99.5915C89.2531 99.5915 89.0965 99.5267 88.9811 99.4113C88.8656 99.2958 88.8008 99.1393 88.8008 98.976C88.8008 98.8128 88.8656 98.6562 88.9811 98.5408C89.0965 98.4253 89.2531 98.3605 89.4163 98.3605Z" fill="white"/>
<path d="M15.7149 102.488C15.875 102.488 16.0289 102.551 16.1438 102.662C16.2588 102.774 16.3257 102.926 16.3304 103.086C16.3304 103.249 16.2656 103.406 16.1501 103.521C16.0347 103.636 15.8781 103.701 15.7149 103.701C15.6265 103.717 15.5358 103.712 15.4491 103.689C15.3625 103.666 15.282 103.624 15.2134 103.566C15.1447 103.508 15.0895 103.436 15.0517 103.355C15.0138 103.273 14.9941 103.185 14.9941 103.095C14.9941 103.005 15.0138 102.916 15.0517 102.835C15.0895 102.754 15.1447 102.682 15.2134 102.624C15.282 102.566 15.3625 102.524 15.4491 102.501C15.5358 102.477 15.6265 102.473 15.7149 102.488Z" fill="white"/>
<path d="M25.5442 68.5608C25.666 68.5608 25.785 68.5969 25.8862 68.6645C25.9875 68.7322 26.0663 68.8283 26.1129 68.9408C26.1595 69.0533 26.1717 69.177 26.148 69.2964C26.1242 69.4158 26.0656 69.5255 25.9795 69.6116C25.8934 69.6977 25.7838 69.7563 25.6644 69.7801C25.545 69.8038 25.4211 69.7916 25.3087 69.745C25.1962 69.6984 25.1001 69.6195 25.0324 69.5183C24.9648 69.4171 24.9287 69.2981 24.9287 69.1764C24.9287 69.0131 24.9936 68.8565 25.109 68.7411C25.2244 68.6257 25.381 68.5608 25.5442 68.5608Z" fill="white"/>
<path d="M28.7141 23.0109C28.7093 23.3679 28.5642 23.7086 28.3101 23.9593C28.0559 24.2101 27.7133 24.3506 27.3563 24.3506C27.1804 24.3506 27.0062 24.3159 26.8436 24.2486C26.6811 24.1813 26.5334 24.0826 26.409 23.9582C26.2846 23.8338 26.1859 23.6861 26.1185 23.5236C26.0512 23.361 26.0166 23.1868 26.0166 23.0109C26.0166 22.6539 26.1571 22.3112 26.4079 22.0571C26.6586 21.803 26.9993 21.6578 27.3563 21.6531C27.7149 21.6578 28.0576 21.8023 28.3112 22.056C28.5649 22.3096 28.7094 22.6522 28.7141 23.0109Z" fill="white"/>
<path d="M94.4313 52.8285C94.4313 53.0935 94.3528 53.3525 94.2056 53.5728C94.0584 53.7931 93.8492 53.9648 93.6044 54.0662C93.3596 54.1676 93.0901 54.1941 92.8303 54.1424C92.5704 54.0907 92.3317 53.9632 92.1443 53.7758C91.957 53.5884 91.8294 53.3497 91.7777 53.0898C91.726 52.83 91.7525 52.5606 91.8539 52.3158C91.9553 52.071 92.127 51.8618 92.3473 51.7145C92.5676 51.5673 92.8267 51.4888 93.0916 51.4888C93.447 51.4888 93.7877 51.6299 94.0389 51.8812C94.2902 52.1324 94.4313 52.4732 94.4313 52.8285Z" fill="white"/>
<path d="M108.481 3.04189C108.481 3.24356 108.401 3.43696 108.258 3.57955C108.115 3.72215 107.922 3.80227 107.72 3.80227C107.519 3.80227 107.325 3.72215 107.183 3.57955C107.04 3.43696 106.96 3.24356 106.96 3.04189C106.96 2.94204 106.98 2.84315 107.018 2.75089C107.056 2.65864 107.112 2.57481 107.183 2.50421C107.253 2.4336 107.337 2.37761 107.429 2.3394C107.522 2.30118 107.621 2.28149 107.72 2.28149C107.82 2.28149 107.919 2.30118 108.011 2.3394C108.104 2.37761 108.187 2.4336 108.258 2.50421C108.329 2.57481 108.385 2.65864 108.423 2.75089C108.461 2.84315 108.481 2.94204 108.481 3.04189Z" fill="white"/>
<path d="M86.303 15.2985C86.643 15.2985 86.9186 15.0229 86.9186 14.6829C86.9186 14.343 86.643 14.0674 86.303 14.0674C85.9631 14.0674 85.6875 14.343 85.6875 14.6829C85.6875 15.0229 85.9631 15.2985 86.303 15.2985Z" fill="white"/>
<path d="M62.1702 40.6443C62.5102 40.6443 62.7858 40.3687 62.7858 40.0287C62.7858 39.6888 62.5102 39.4132 62.1702 39.4132C61.8303 39.4132 61.5547 39.6888 61.5547 40.0287C61.5547 40.3687 61.8303 40.6443 62.1702 40.6443Z" fill="white"/>
<path d="M95.6815 4.18258C96.4214 4.18258 97.0212 3.58277 97.0212 2.84286C97.0212 2.10296 96.4214 1.50317 95.6815 1.50317C94.9416 1.50317 94.3418 2.10296 94.3418 2.84286C94.3418 3.58277 94.9416 4.18258 95.6815 4.18258Z" fill="white"/>
<path opacity="0.4" d="M12.7497 78.9887C15.7283 85.5951 20.0423 91.5133 25.4202 96.3708C30.798 101.228 37.1232 104.92 43.9976 107.213C45.6257 107.764 47.2814 108.229 48.9581 108.607C60.4216 111.235 72.4348 109.952 83.0845 104.962C93.7342 99.9716 102.408 91.5614 107.724 81.0707C108.884 78.7884 109.87 76.4222 110.675 73.992C115.131 61.1822 114.475 47.1475 108.844 34.8091C103.213 22.4708 93.0402 12.7794 80.4436 7.75247C67.847 2.72549 53.7969 2.75014 41.218 7.82131C28.6391 12.8925 18.5005 22.6194 12.9127 34.9775C12.0693 36.7858 11.3318 38.6416 10.704 40.5355C6.49103 53.1497 7.22218 66.8927 12.7497 78.9887Z" fill="#0B0B0B"/>
<path d="M50.5291 92.1144C49.0238 93.2939 47.81 94.8036 46.9812 96.527C46.1525 98.2505 45.7311 100.141 45.7496 102.054C45.8252 103.06 46.0321 104.052 46.3651 105.005C52.9514 106.524 59.7698 106.751 66.4427 105.674C62.5461 103.598 58.9823 100.949 55.8698 97.8172C53.9862 96.0158 52.2033 94.1119 50.5291 92.1144Z" fill="#2C4919"/>
<path d="M46.2557 5.73955C45.4773 10.6096 49.0075 15.0632 49.9671 19.8789C50.5826 22.9566 50.1662 26.1792 50.9447 29.2026C52.7551 35.883 59.9968 39.9202 66.804 40.0651C70.5877 40.1918 74.6431 39.4495 77.9923 41.2237C79.3864 41.9479 80.5269 43.0341 81.8666 43.9031C83.756 44.9755 85.8712 45.5884 88.0413 45.6921C90.2113 45.7959 92.3754 45.3877 94.3585 44.5006C98.3188 42.6846 101.72 39.84 104.207 36.2632C105.056 35.1106 105.824 33.9008 106.506 32.6423C101.73 21.564 93.2943 12.462 82.61 6.85954C71.9257 1.25706 59.6414 -0.506059 47.8127 1.86526C46.9989 3.01772 46.4657 4.34444 46.2557 5.73955Z" fill="#385823"/>
<path d="M82.103 77.45C80.6727 79.8217 81.759 83.008 80.6185 85.5245C80.0615 86.5189 79.2643 87.3579 78.2998 87.9651C77.3353 88.5723 76.2341 88.9282 75.0967 89.0005C72.8273 89.1209 70.5519 88.9506 68.3257 88.4936C63.3464 87.5826 58.209 88.1555 53.5527 90.1411C52.4666 90.6702 51.4508 91.3331 50.5293 92.1144C52.1742 94.1096 53.9269 96.0134 55.7795 97.8172C58.9196 100.957 62.5143 103.605 66.4429 105.674C74.6597 104.359 82.4484 101.117 89.1726 96.2149C95.8967 91.3126 101.365 84.8886 105.131 77.4682C100.134 75.9139 94.9543 75.0252 89.7249 74.8249C86.9006 74.6801 83.5694 75.0422 82.103 77.45Z" fill="#385823"/>
<path d="M14.2307 72.3447C14.315 71.1007 14.0847 69.8554 13.5608 68.7239C13.0251 66.7712 13.0684 64.7049 13.6856 62.7764C14.3027 60.8479 15.4669 59.1403 17.0368 57.8614C20.0602 55.5079 24.6768 54.5121 25.8536 50.8551C26.7407 48.0489 25.0026 45.0979 23.156 42.7987C20.4201 39.3955 17.2627 36.3538 13.7599 33.7466C12.6737 32.95 11.5332 32.1535 10.465 31.3207C7.2573 38.2066 5.57556 45.7043 5.53493 53.3005C5.49431 60.8968 7.09576 68.4121 10.2297 75.3319C11.9495 74.9336 13.7962 74.1008 14.2307 72.3447Z" fill="#2C4919"/>
<path d="M50.5281 92.1145C51.4496 91.3332 52.4653 90.6703 53.5515 90.1412C58.2078 88.1556 63.3452 87.5826 68.3245 88.4937C70.5507 88.9507 72.8261 89.121 75.0955 89.0006C76.2329 88.9283 77.3341 88.5723 78.2986 87.9652C79.2631 87.358 80.0603 86.5189 80.6173 85.5246C81.7578 83.0081 80.6172 79.8218 82.1018 77.4501C83.5863 75.0785 86.8994 74.6802 89.7237 74.7888C94.9547 75.0008 100.135 75.9017 105.13 77.4683C106.272 75.1775 107.257 72.8126 108.081 70.3895C112.216 58.0969 111.655 44.7088 106.506 32.8052C105.824 34.0637 105.056 35.2735 104.207 36.4261C101.719 40.0029 98.3186 42.8475 94.3583 44.6635C92.3752 45.5506 90.2111 45.9588 88.0411 45.8551C85.871 45.7513 83.7558 45.1384 81.8664 44.066C80.5267 43.2333 79.3862 42.1108 77.9921 41.3866C74.6429 39.5762 70.5875 40.3547 66.8038 40.228C59.9242 40.0107 52.6644 35.9735 50.9445 29.3655C50.166 26.3421 50.5824 23.1195 49.9669 20.0418C49.0073 15.2261 45.477 10.7725 46.2555 5.90246C46.4842 4.55153 47.0165 3.27016 47.8125 2.15491C42.6465 3.22423 37.6679 5.0546 33.0395 7.58616C31.4238 13.8473 30.5428 20.2754 30.4144 26.7404C29.6902 49.8775 35.7189 74.2819 50.5281 92.1145ZM88.3296 57.1916C89.8866 56.1958 89.6512 56.92 91.4616 56.6122C94.0805 55.9897 96.8304 56.2311 99.3007 57.3002C100.512 57.8672 101.496 58.8264 102.094 60.0224C102.692 61.2183 102.869 62.5811 102.596 63.8901C102.058 65.2414 101.149 66.4126 99.9728 67.2682C98.7969 68.1237 97.4026 68.6285 95.9515 68.7239C94.2538 68.9984 92.5164 68.8933 90.8642 68.4162C88.2934 67.8368 85.6683 66.2618 85.4329 64.2703C85.0364 62.9369 85.1075 61.5081 85.6344 60.2207C86.1612 58.9332 87.1121 57.8645 88.3296 57.1916ZM48.9893 59.5632C50.1845 59.1793 51.4472 59.0517 52.6951 59.189C53.9429 59.3263 55.1478 59.7252 56.2309 60.3598C59.0762 61.9059 61.3297 64.3504 62.6398 67.3118C63.3029 68.6858 63.6582 70.188 63.6807 71.7135C63.7032 73.2391 63.3924 74.7511 62.7701 76.1441C62.1477 77.5371 61.2288 78.7774 60.0775 79.7785C58.9261 80.7795 57.5701 81.5172 56.1042 81.94C54.4037 82.4025 52.6059 82.3648 50.9264 81.8313C49.5011 81.521 48.1749 80.8626 47.0661 79.9148C45.9573 78.9671 45.1004 77.7596 44.5719 76.4001C43.1606 73.4292 42.8588 70.0514 43.721 66.8773C44.4813 63.9625 46.0745 60.74 48.9893 59.5632Z" fill="url(#paint0_linear_1_2)"/>
<path d="M13.6876 33.801C17.1904 36.4082 20.3477 39.4499 23.0836 42.8531C24.894 45.1523 26.7044 48.1033 25.7811 50.9095C24.6044 54.5303 19.9878 55.5622 16.9644 57.9158C15.3946 59.1947 14.2303 60.9023 13.6131 62.8308C12.996 64.7593 12.9527 66.8256 13.4884 68.7783C14.0123 69.9098 14.2426 71.1551 14.1582 72.3991C13.7961 74.2095 11.9495 74.988 10.1572 75.4406C13.1399 82.0351 17.4538 87.9417 22.8281 92.7894C28.2024 97.6372 34.5209 101.321 41.3869 103.611C43.0525 104.154 44.7 104.625 46.3656 105.005C46.0326 104.052 45.8256 103.06 45.75 102.054C45.7315 100.142 46.1529 98.2506 46.9817 96.5272C47.8104 94.8038 49.0243 93.2941 50.5295 92.1146C35.7203 74.282 29.6916 49.8775 30.4158 26.505C30.5442 20.04 31.4252 13.612 33.0409 7.35083C23.1107 12.7232 15.1707 21.1457 10.3926 31.3751C11.4607 32.2079 12.6013 33.0044 13.6876 33.801Z" fill="url(#paint1_linear_1_2)"/>
<path d="M44.6455 76.4724C45.174 77.8319 46.031 79.0394 47.1398 79.9871C48.2486 80.9348 49.5748 81.5933 51.0001 81.9036C52.6796 82.4371 54.4774 82.4748 56.1779 82.0123C57.6438 81.5895 58.9998 80.8518 60.1511 79.8507C61.3024 78.8497 62.2214 77.6093 62.8438 76.2164C63.4661 74.8234 63.7769 73.3114 63.7544 71.7858C63.7319 70.2603 63.3766 68.7581 62.7135 67.3841C61.4034 64.4227 59.1499 61.9783 56.3046 60.4321C55.2214 59.7975 54.0166 59.3985 52.7687 59.2613C51.5209 59.124 50.2581 59.2515 49.0629 59.6355C46.1481 60.8123 44.555 63.9805 43.867 67.022C43.0001 70.165 43.276 73.5136 44.6455 76.4724Z" fill="#385823"/>
<path d="M90.8639 68.4161C92.5161 68.8932 94.2536 68.9983 95.9512 68.7239C97.4023 68.6284 98.7966 68.1237 99.9726 67.2681C101.149 66.4126 102.058 65.2413 102.595 63.8901C102.868 62.5811 102.692 61.2183 102.094 60.0223C101.496 58.8263 100.511 57.8672 99.3005 57.3002C96.8301 56.231 94.0802 55.9897 91.4614 56.6122C89.651 56.92 89.8863 56.1958 88.3293 57.1915C87.1086 57.8616 86.1538 58.9292 85.6236 60.2168C85.0934 61.5045 85.0196 62.9349 85.4146 64.2703C85.6681 66.2617 88.2931 67.8368 90.8639 68.4161Z" fill="#385823"/>
<path opacity="0.2" d="M33.1677 85.3254C33.5709 85.3466 33.9704 85.2388 34.3083 85.0177C34.4917 84.8331 34.6259 84.6054 34.6986 84.3556C34.7713 84.1057 34.7803 83.8416 34.7247 83.5874C34.5443 82.0002 33.8441 80.5171 32.7332 79.3691C31.8442 78.6916 30.7943 78.2569 29.6866 78.1077C28.5789 77.9586 27.4514 78.1 26.4149 78.5182C25.1114 73.6301 22.613 72.6344 17.8697 73.5396C16.6385 73.8113 15.4863 74.3626 14.5023 75.1509C13.8841 75.6408 13.3956 76.2751 13.08 76.998C12.7643 77.7209 12.631 78.5103 12.6919 79.2967C11.7583 78.8288 10.6928 78.694 9.67211 78.9146C8.65138 79.1352 7.73664 79.698 7.07958 80.5097C6.44379 81.3386 5.9949 82.2953 5.76365 83.314C5.5324 84.3328 5.52428 85.3895 5.73989 86.4117L33.1677 85.3254Z" fill="#0A2030"/>
<path opacity="0.2" d="M113.803 66.6781C114.205 66.7113 114.606 66.6093 114.943 66.3885C115.119 66.1995 115.248 65.9709 115.317 65.722C115.386 65.473 115.395 65.2111 115.342 64.9582C115.165 63.3646 114.465 61.8746 113.35 60.7219C112.459 60.0473 111.409 59.6159 110.301 59.4699C109.193 59.3239 108.067 59.4683 107.032 59.8891C105.728 55.0009 103.248 53.9871 98.4866 54.8923C97.2595 55.1758 96.1098 55.7259 95.1192 56.5036C94.5057 56.9977 94.0207 57.6326 93.7055 58.3545C93.3903 59.0763 93.2542 59.8637 93.3088 60.6494C92.3731 60.1915 91.3104 60.0621 90.2922 60.2821C89.2739 60.5022 88.3595 61.0589 87.6965 61.8624C87.0655 62.6975 86.6198 63.6573 86.3888 64.6781C86.1578 65.6989 86.1468 66.7572 86.3568 67.7825L113.803 66.6781Z" fill="#0A2030"/>
<path opacity="0.2" d="M54.5915 32.7841C54.9934 32.8173 55.3948 32.7153 55.7321 32.4945C55.9123 32.3081 56.0431 32.0797 56.1127 31.8299C56.1822 31.5801 56.1883 31.317 56.1303 31.0643C55.9693 29.4716 55.2663 27.9825 54.1389 26.846C53.2508 26.1668 52.2008 25.7311 51.0927 25.5819C49.9846 25.4326 48.8567 25.5751 47.8205 25.9951C46.517 21.107 44.0368 20.1112 39.2754 20.9983C38.0511 21.284 36.9066 21.8408 35.9261 22.6277C35.3067 23.1166 34.8174 23.7507 34.5016 24.4738C34.1858 25.197 34.0533 25.9869 34.1157 26.7735C33.1787 26.3077 32.1112 26.174 31.0882 26.3943C30.0652 26.6147 29.1474 27.1762 28.4853 27.9865C27.8579 28.8199 27.4142 29.7767 27.1832 30.794C26.9523 31.8113 26.9395 32.8659 27.1456 33.8885L54.5915 32.7841Z" fill="#0A2030"/>
<path d="M30.9222 88.91C31.3604 88.9394 31.7969 88.8319 32.1714 88.6023C32.3681 88.3919 32.5118 88.1376 32.5905 87.8605C32.6693 87.5834 32.6807 87.2915 32.624 87.0091C32.4257 85.2647 31.6554 83.635 30.4334 82.3744C29.4562 81.6266 28.3002 81.1479 27.0804 80.9859C25.8607 80.8239 24.6198 80.9843 23.4813 81.4511C22.0511 76.0199 19.3174 74.9698 14.0853 76.0199C12.7572 76.3423 11.5193 76.9612 10.4645 77.8303C9.79508 78.3729 9.2674 79.0699 8.92683 79.8614C8.58625 80.6529 8.44293 81.5153 8.50919 82.3744C7.48045 81.866 6.30967 81.7217 5.18825 81.965C4.06684 82.2084 3.06114 82.8251 2.33567 83.7142C1.64392 84.6313 1.15539 85.6853 0.902548 86.8059C0.649703 87.9266 0.638339 89.0882 0.869233 90.2135L30.9222 88.91Z" fill="#F7F9F4"/>
<path d="M119.451 68.4343C119.892 68.4583 120.328 68.3443 120.701 68.1084C120.895 67.8999 121.037 67.6487 121.115 67.375C121.194 67.1013 121.207 66.813 121.153 66.5333C120.956 64.7832 120.186 63.1474 118.963 61.8806C117.985 61.1328 116.829 60.654 115.61 60.492C114.39 60.33 113.149 60.4904 112.011 60.9572C110.58 55.526 107.847 54.4759 102.615 55.526C101.289 55.8542 100.052 56.4725 98.9937 57.3364C98.3238 57.8817 97.7971 58.5823 97.4595 59.3774C97.1219 60.1725 96.9836 61.038 97.0565 61.8987C96.0265 61.3822 94.8508 61.2335 93.7246 61.4772C92.5984 61.7209 91.5893 62.3423 90.8649 63.2384C90.1725 64.1517 89.6835 65.2025 89.4306 66.3204C89.1777 67.4382 89.1667 68.5972 89.3985 69.7196L119.451 68.4343Z" fill="#F7F9F4"/>
<path d="M57.2893 29.2541C57.7283 29.2925 58.1677 29.1843 58.5385 28.9463C58.7353 28.7359 58.879 28.4816 58.9577 28.2045C59.0364 27.9274 59.0479 27.6355 58.9911 27.3531C58.7929 25.6087 58.0226 23.979 56.8006 22.7185C55.8234 21.9706 54.6674 21.4919 53.4476 21.3299C52.2279 21.1679 50.987 21.3283 49.8486 21.7951C48.4183 16.3639 45.6846 15.3138 40.4525 16.3639C39.1244 16.6863 37.8865 17.3052 36.8317 18.1743C36.1667 18.7246 35.6424 19.4256 35.3024 20.219C34.9623 21.0124 34.8163 21.8754 34.8764 22.7366C33.8503 22.2228 32.6798 22.0738 31.5577 22.314C30.4356 22.5542 29.4287 23.1693 28.7029 24.0581C28.0111 24.9753 27.5226 26.0293 27.2697 27.1499C27.0169 28.2706 27.0055 29.4322 27.2364 30.5576L57.2893 29.2541Z" fill="#F7F9F4"/>
<path d="M77.2874 114.075C77.5566 114.268 77.7839 114.514 77.9559 114.797C78.1279 115.08 78.241 115.395 78.2883 115.723C78.3356 116.051 78.3162 116.385 78.2314 116.705C78.1465 117.026 77.9979 117.326 77.7944 117.587L77.378 118.094C77.1727 118.354 76.9166 118.571 76.6252 118.729C76.3337 118.887 76.0131 118.985 75.6828 119.015C75.3526 119.046 75.0195 119.009 74.704 118.906C74.3885 118.804 74.0971 118.638 73.8477 118.42L30.7598 80.7089L77.2874 114.075Z" fill="url(#paint2_linear_1_2)"/>
<path d="M76.6719 114.654C77.0278 114.942 77.2611 115.355 77.325 115.808C77.3888 116.262 77.2783 116.723 77.0159 117.098L76.7262 117.46C76.5839 117.643 76.4058 117.795 76.2028 117.906C75.9999 118.017 75.7764 118.086 75.5459 118.108C75.3154 118.13 75.0828 118.105 74.8624 118.034C74.642 117.963 74.4384 117.848 74.2641 117.696L44.1025 91.2998L76.6719 114.654Z" fill="url(#paint3_linear_1_2)"/>
<defs>
<linearGradient id="paint0_linear_1_2" x1="123.158" y1="-3.04733" x2="-44.3881" y2="95.0789" gradientUnits="userSpaceOnUse">
<stop stop-color="#72C6CD"/>
<stop offset="1" stop-color="#294E4F"/>
</linearGradient>
<linearGradient id="paint1_linear_1_2" x1="121.613" y1="-5.67494" x2="-45.9337" y2="92.4512" gradientUnits="userSpaceOnUse">
<stop stop-color="#72C6CD"/>
<stop offset="0.88" stop-color="#294E4F"/>
</linearGradient>
<linearGradient id="paint2_linear_1_2" x1="78.3135" y1="123.238" x2="72.4709" y2="75.5938" gradientUnits="userSpaceOnUse">
<stop stop-color="#3C9DB7"/>
<stop offset="0.802083" stop-color="#1B7F99"/>
</linearGradient>
<linearGradient id="paint3_linear_1_2" x1="77.3426" y1="121.065" x2="73.2487" y2="87.7212" gradientUnits="userSpaceOnUse">
<stop stop-color="#3C9DB7"/>
<stop offset="0.880208" stop-color="#3C9DB7"/>
</linearGradient>
</defs>
</svg>
