<svg width="236" height="170" viewBox="0 0 236 170" fill="none" xmlns="http://www.w3.org/2000/svg">
<path opacity="0.4" d="M179.188 90.6776C179.952 55.3807 151.958 26.1474 116.661 25.3834C81.364 24.6193 52.1308 52.6139 51.3668 87.9109C50.6028 123.208 78.5973 152.441 113.894 153.205C149.191 153.969 178.424 125.975 179.188 90.6776Z" fill="black"/>
<path d="M170.677 111.732C185.352 79.6214 171.217 41.6942 139.106 27.0197C106.994 12.3453 69.0673 26.4804 54.3928 58.5915C39.7183 90.7025 53.8534 128.63 85.9645 143.304C118.076 157.979 156.003 143.844 170.677 111.732Z" fill="url(#paint0_linear_1_171)"/>
<path d="M157.717 40.5057C156.957 39.7272 156.16 38.9668 155.345 38.2426C152.462 35.6228 149.34 33.2773 146.022 31.2363C145.383 31.4932 144.776 31.8211 144.211 32.214C143.821 32.4999 143.457 32.8211 143.125 33.1735C142.737 33.6 142.425 34.0898 142.202 34.6218C141.115 37.3555 142.944 40.3065 144.664 42.6963C145.048 43.3059 145.553 43.8298 146.148 44.2351C146.768 44.5607 147.444 44.7635 148.14 44.8326C150.497 45.4916 153.012 45.2927 155.237 44.2713C156.513 43.4362 157.415 42.138 157.753 40.6505L158.115 40.9039C157.995 40.7593 157.862 40.626 157.717 40.5057Z" fill="#026984"/>
<path d="M114.684 137.997C109.648 139.825 105.52 143.538 103.17 148.352C114.162 150.006 125.396 148.757 135.757 144.731L135.106 143.844C132.687 140.925 129.443 138.805 125.799 137.762C122.155 136.718 118.281 136.8 114.684 137.997Z" fill="#026984"/>
<path d="M122.686 61.9771C123.915 63.1212 125.533 63.7571 127.212 63.7571C128.891 63.7571 130.508 63.1212 131.738 61.9771C134.092 59.5331 135.775 55.0614 133.277 52.7621C132.535 52.0923 132.498 50.5534 131.792 49.8293C131.086 49.1051 131.629 48.5257 129.982 47.8921C129.603 47.6806 129.202 47.5107 128.787 47.3852C127.36 47.2881 125.928 47.4664 124.569 47.9102C123.518 48.1982 122.543 48.7141 121.714 49.4212C120.885 50.1284 120.221 51.0094 119.771 52.0018C119.578 52.4547 119.438 52.9286 119.355 53.4139C119.183 55.4774 119.698 57.5399 120.821 59.2796C121.305 60.2666 121.934 61.1758 122.686 61.9771Z" fill="#026984"/>
<path d="M70.582 57.2882C71.8115 58.4322 73.4286 59.0682 75.1081 59.0682C76.7875 59.0682 78.4046 58.4322 79.6341 57.2882C81.9876 54.8441 83.6713 50.3724 81.173 48.0731C80.4307 47.4033 80.3945 45.8644 79.6884 45.1403C78.9824 44.4161 79.5074 43.8368 77.878 43.2212C77.5041 42.9953 77.1024 42.8188 76.6831 42.6962C75.2563 42.5978 73.824 42.776 72.4649 43.2212C71.4155 43.5126 70.4424 44.0298 69.6137 44.7365C68.785 45.4433 68.1207 46.3225 67.6672 47.3128C67.4681 47.765 67.3223 48.2389 67.2327 48.7249C67.078 50.7951 67.599 52.8597 68.7173 54.6088C69.2056 55.5876 69.8338 56.4902 70.582 57.2882Z" fill="#026984"/>
<path d="M147.849 89.0555C149.362 89.8583 151.13 90.035 152.772 89.5474C154.415 89.0599 155.8 87.947 156.63 86.4485C156.977 85.6735 157.169 84.8376 157.193 83.9886C157.217 83.1395 157.074 82.2941 156.771 81.5005C156.469 80.7068 156.013 79.9807 155.429 79.3634C154.846 78.7462 154.146 78.25 153.371 77.9033L152.248 77.4688C151.588 77.16 150.868 77 150.139 77C149.41 77 148.69 77.16 148.03 77.4688L145.061 78.8447C144.174 79.2611 143.251 79.8042 143.015 80.7638C142.959 81.3174 143.059 81.8757 143.305 82.375C144.016 85.0539 145.619 87.4103 147.849 89.0555Z" fill="#026984"/>
<path d="M68.4998 83.5935C68.5987 85.2606 69.1222 86.8747 70.0205 88.2825C71.0275 89.3441 72.3616 90.037 73.8092 90.2504C75.2567 90.4638 76.734 90.1852 78.0045 89.4593C80.5177 87.9363 82.5897 85.7832 84.0151 83.2133C86.3686 79.5925 88.5773 75.3924 87.4367 71.2646C86.2962 67.1369 82.0055 65.8334 78.2579 65.6161C74.3112 66.1592 69.749 67.1188 68.0472 70.7215C67.2488 72.9278 67.1165 75.3202 67.667 77.6011C67.9385 79.5925 68.2282 81.6021 68.4998 83.5935Z" fill="#026984"/>
<path d="M89.3935 116.525C87.0218 115.928 86.0805 114.823 82.2424 116.199C80.1966 116.923 78.875 119.15 77.481 120.816C76.9079 121.583 76.5253 122.476 76.3648 123.42C76.2043 124.364 76.2704 125.333 76.5576 126.247C77.1693 128.068 78.1771 129.732 79.5086 131.117C81.307 133.329 83.6814 135.002 86.3701 135.951C87.7184 136.41 89.1653 136.5 90.5599 136.21C91.9546 135.92 93.2461 135.262 94.2998 134.303C95.3414 133.155 96.0708 131.759 96.4179 130.248C96.871 128.858 96.9842 127.38 96.748 125.937C96.5117 124.494 95.9329 123.129 95.0601 121.956C93.0143 119.657 92.3445 116.978 89.3935 116.525Z" fill="#026984"/>
<path d="M78.4581 103.816C78.459 102.266 77.9405 100.761 76.9856 99.5398C76.0307 98.319 74.6943 97.4534 73.1898 97.0811C72.5199 96.9182 71.8501 96.7009 71.1802 96.4837C69.1848 95.8003 67.0003 95.9323 65.1017 96.8511C63.2031 97.7698 61.7441 99.401 61.0419 101.39C60.6883 102.327 60.6009 103.345 60.7894 104.329C60.9779 105.313 61.435 106.226 62.1101 106.966C63.0938 108.086 64.3942 108.882 65.8395 109.247C68.0842 110.1 70.4863 110.458 72.882 110.297C74.3992 109.989 75.7709 109.185 76.7805 108.012C77.7902 106.838 78.3804 105.362 78.4581 103.816Z" fill="#026984"/>
<path d="M101.74 100.575C104.173 101.694 106.865 102.126 109.525 101.825C113.399 101.444 117.726 99.308 117.762 95.0173C117.744 93.3251 117.099 91.6997 115.952 90.4551C113.481 88.0877 110.3 86.599 106.9 86.2187H106.664C105.22 85.8285 103.698 85.8221 102.251 86.1999C100.803 86.5777 99.4786 87.3268 98.4089 88.3731C97.5322 89.1728 96.8977 90.2027 96.5776 91.3453C96.2576 92.488 96.2648 93.6976 96.5985 94.8363C97.0172 96.0938 97.6896 97.252 98.574 98.2391C99.4584 99.2263 100.536 100.021 101.74 100.575Z" fill="#026984"/>
<path d="M120.587 122.518C121.071 123.757 121.811 124.88 122.76 125.813C123.945 126.965 125.425 127.767 127.036 128.13C128.648 128.494 130.329 128.404 131.893 127.872C133.458 127.34 134.844 126.386 135.9 125.115C136.956 123.844 137.64 122.306 137.877 120.671C138.097 119.323 137.947 117.94 137.442 116.67C136.682 114.86 137.225 111.872 136.139 110.243C135.65 109.501 136.139 109.953 134.727 109.012C134.872 108.777 133.188 108.324 132.627 108.233C131.198 108.009 129.736 108.114 128.354 108.541L127.232 108.885C125.88 109.314 124.629 110.012 123.555 110.939C122.481 111.866 121.607 113.001 120.986 114.276C120.364 115.551 120.008 116.939 119.94 118.356C119.871 119.773 120.092 121.189 120.587 122.518Z" fill="#026984"/>
<path d="M159.112 107.111C154.731 109.066 151.436 114.679 154.405 118.462C155.526 119.914 156.971 121.084 158.624 121.88C160.277 122.675 162.093 123.073 163.928 123.043C166.724 119.235 169.092 115.131 170.988 110.804C169.598 109.081 167.726 107.809 165.612 107.152C163.497 106.494 161.235 106.48 159.112 107.111Z" fill="#026984"/>
<path d="M170.283 80.7513C168.635 82.4244 167.075 84.1829 165.612 86.0196C165.247 87.1335 165.117 88.311 165.232 89.4775C165.239 90.3767 165.436 91.2642 165.81 92.0817C166.185 92.8992 166.728 93.6282 167.404 94.2208C168.595 95.3473 170.108 96.075 171.731 96.3028C172.925 96.5497 174.158 96.5497 175.352 96.3028C176.327 90.6784 176.541 84.9482 175.986 79.2668C174.984 79.0865 173.956 79.1258 172.971 79.3821C171.986 79.6385 171.069 80.1056 170.283 80.7513Z" fill="#026984"/>
<path d="M128.119 78.1623L126.525 78.2528C125.149 77.764 122.597 78.0355 123.755 83.3944C125.566 86.5445 133.115 85.6755 129.893 79.7735C129.567 79.1218 128.988 78.0174 128.119 78.1623Z" fill="#026984"/>
<path d="M160.904 60.04C160.524 59.334 159.945 58.2296 159.094 58.3745H157.501C156.107 57.8857 153.572 58.1391 154.713 63.516C156.505 66.7567 164.145 65.8877 160.904 60.04Z" fill="#026984"/>
<path d="M102.772 68.9291C103.849 69.0423 104.938 68.9124 105.958 68.549C106.777 68.2709 107.514 67.7949 108.105 67.1633C108.696 66.5316 109.121 65.7638 109.344 64.9281C109.532 64.0378 109.482 63.1136 109.199 62.2487C108.849 61.1228 108.189 60.1188 107.293 59.3526C106.397 58.5864 105.303 58.0894 104.136 57.919C102.97 57.7486 101.779 57.9117 100.701 58.3895C99.6237 58.8674 98.7033 59.6404 98.0465 60.6193C97.9915 60.6998 97.9431 60.7845 97.9017 60.8728C97.9017 60.8728 97.9017 61.0357 97.9017 61.1082C97.5778 61.9415 97.4525 62.8388 97.5357 63.7289C97.6189 64.6191 97.9082 65.4777 98.3807 66.2366C98.8533 66.9955 99.4962 67.6339 100.258 68.1013C101.02 68.5687 101.881 68.8521 102.772 68.9291Z" fill="#026984"/>
<path d="M100.473 42.1713C101.55 42.2733 102.637 42.1436 103.66 41.7911C104.475 41.5106 105.209 41.0335 105.796 40.4019C106.384 39.7704 106.806 39.004 107.027 38.1703C107.212 37.2869 107.168 36.3709 106.9 35.509C106.547 34.3836 105.884 33.3807 104.987 32.6157C104.089 31.8506 102.994 31.3544 101.827 31.1841C100.66 31.0139 99.4688 31.1766 98.3902 31.6534C97.3116 32.1303 96.3894 32.9019 95.7299 33.8796C95.6771 33.9519 95.6345 34.0311 95.6032 34.115L95.4946 34.3684C95.1766 35.2091 95.0592 36.1123 95.1518 37.0063C95.2443 37.9003 95.5443 38.7603 96.0277 39.518C96.5112 40.2757 97.1648 40.9101 97.9365 41.3707C98.7083 41.8313 99.5769 42.1055 100.473 42.1713Z" fill="#026984"/>
<path d="M122.143 84.028C57.1673 50.7163 2.52888 27.5973 0.0848214 32.3587C-2.35924 37.1201 48.3143 68.0058 113.29 101.299C178.266 134.593 232.922 157.73 235.367 152.969C237.811 148.207 187.119 117.285 122.143 84.028ZM113.634 100.485C54.8499 70.3412 12.4138 42.2979 11.1465 37.627C9.04641 29.8422 63.2865 53.9207 122.071 84.028C180.855 114.135 227.075 141.672 224.088 147.23C221.843 151.484 172.491 130.61 113.634 100.485Z" fill="#1CA9C9"/>
<defs>
<linearGradient id="paint0_linear_1_171" x1="66.5" y1="41.5" x2="99.9784" y2="144.044" gradientUnits="userSpaceOnUse">
<stop stop-color="#3C9DB7"/>
<stop offset="0.395833" stop-color="#3C9DB7"/>
<stop offset="0.976054" stop-color="#18819D"/>
</linearGradient>
</defs>
</svg>
