<svg width="28" height="23" viewBox="0 0 28 23" fill="none" xmlns="http://www.w3.org/2000/svg">
<path d="M27.1321 19.4642C27.2851 19.5734 27.4145 19.7125 27.5124 19.873C27.6102 20.0335 27.6747 20.2121 27.7017 20.3982C27.7288 20.5842 27.7179 20.7738 27.6698 20.9555C27.6217 21.1373 27.5373 21.3074 27.4218 21.4557L27.1864 21.7453C27.0707 21.8925 26.9261 22.0144 26.7616 22.1037C26.5971 22.193 26.4162 22.2478 26.2297 22.2648C26.0433 22.2817 25.8554 22.2605 25.6775 22.2023C25.4995 22.1441 25.3354 22.0502 25.195 21.9264L0.772461 0.563477L27.1321 19.4642Z" fill="url(#paint0_linear_1_1345)"/>
<defs>
<linearGradient id="paint0_linear_1_1345" x1="27.7163" y1="24.6571" x2="24.4068" y2="-2.33437" gradientUnits="userSpaceOnUse">
<stop stop-color="#3C9DB7"/>
<stop offset="0.880208" stop-color="#3C9DB7"/>
</linearGradient>
</defs>
</svg>
